<svg xmlns="http://www.w3.org/2000/svg" viewBox="0 0 1200 675" role="img">
  <defs>
    <linearGradient id="bg" x1="0" y1="0" x2="1" y2="1">
      <stop offset="0" stop-color="#fffdf8"/>
      <stop offset=".63" stop-color="#f3f0e7"/>
      <stop offset="1" stop-color="#e5ede3"/>
    </linearGradient>
    <filter id="sh" x="-20%" y="-20%" width="140%" height="140%">
      <feDropShadow dx="0" dy="14" stdDeviation="17" flood-color="#596256" flood-opacity=".1"/>
    </filter>
  </defs>
  <rect width="1200" height="675" fill="url(#bg)"/>
  <circle cx="918" cy="94" r="270" fill="#fff7df" opacity=".52"/>
  <rect x="128" y="428" width="944" height="105" rx="30" fill="#d2bea1" opacity=".52"/>
  <rect x="196" y="226" width="310" height="230" rx="31" fill="#fbf9f2" filter="url(#sh)"/>
  <path d="M239 286h151M239 334h207M239 382h134" stroke="#d6e1d5" stroke-width="13" stroke-linecap="round"/>
  <rect x="584" y="276" width="156" height="112" rx="32" fill="#e9eef1" filter="url(#sh)"/>
  <path d="M609 304c22-35 80-35 103 0 20 32 7 75-29 92" fill="none" stroke="#8da4b0" stroke-width="18" stroke-linecap="round" opacity=".68"/>
  <circle cx="647" cy="337" r="23" fill="#fbf9f2"/>
  <rect x="783" y="331" width="178" height="106" rx="28" fill="#f7f3e9" filter="url(#sh)"/>
  <path d="M961 358h44c31 0 52 32 39 60-11 23-38 32-60 20l-23-13" fill="none" stroke="#d3c1a6" stroke-width="16" stroke-linecap="round"/>
  <path d="M816 330c18-37 94-41 116 0" fill="#fbf9f2"/>
  <path d="M1003 499c-42-76-28-149 42-218 55 94 41 167-42 218z" fill="#719579" opacity=".43"/>
  <path d="M996 503c-63-48-126-57-190-27 60 61 124 70 190 27z" fill="#a8c0a7" opacity=".5"/>
  <rect x="65" y="548" width="1070" height="127" fill="#dfe8dd" opacity=".34"/>
</svg>
