<svg xmlns="http://www.w3.org/2000/svg" viewBox="0 0 1200 675" role="img">
  <defs>
    <linearGradient id="bg" x1="0" y1="0" x2="1" y2="1">
      <stop offset="0" stop-color="#fffdf7"/>
      <stop offset=".58" stop-color="#f3f1e8"/>
      <stop offset="1" stop-color="#e3ebdf"/>
    </linearGradient>
    <radialGradient id="sun" cx="72%" cy="12%" r="52%">
      <stop offset="0" stop-color="#fff7d9" stop-opacity=".72"/>
      <stop offset=".5" stop-color="#fff8e7" stop-opacity=".35"/>
      <stop offset="1" stop-color="#fff8e7" stop-opacity="0"/>
    </radialGradient>
    <filter id="softShadow" x="-20%" y="-20%" width="140%" height="140%">
      <feDropShadow dx="0" dy="16" stdDeviation="18" flood-color="#55624f" flood-opacity=".12"/>
    </filter>
  </defs>
  <rect width="1200" height="675" fill="url(#bg)"/>
  <rect width="1200" height="675" fill="url(#sun)"/>
  <path d="M0 548c142-42 260-28 370 15 138 54 265 64 402 14 178-65 310-50 428 4v94H0z" fill="#dfe8dd" opacity=".7"/>
  <path d="M870 0v420" stroke="#ffffff" stroke-width="8" opacity=".8"/>
  <path d="M704 0v420" stroke="#ffffff" stroke-width="8" opacity=".65"/>
  <path d="M640 130h328" stroke="#ffffff" stroke-width="8" opacity=".72"/>
  <path d="M640 286h328" stroke="#ffffff" stroke-width="8" opacity=".58"/>
  <rect x="616" y="52" width="382" height="404" rx="34" fill="#f9fbf6" opacity=".36"/>
  <path d="M704 75c-30 48-39 104-24 169 17 71-4 122-62 153" fill="none" stroke="#c8d9c8" stroke-width="9" stroke-linecap="round" opacity=".45"/>
  <ellipse cx="690" cy="166" rx="48" ry="18" fill="#a8c0a7" opacity=".32" transform="rotate(-33 690 166)"/>
  <ellipse cx="649" cy="274" rx="56" ry="21" fill="#6f9379" opacity=".22" transform="rotate(29 649 274)"/>
  <rect x="116" y="410" width="545" height="110" rx="28" fill="#d6c4aa" opacity=".56"/>
  <rect x="142" y="362" width="320" height="118" rx="28" fill="#f7f3e9" filter="url(#softShadow)"/>
  <rect x="172" y="386" width="210" height="58" rx="18" fill="#e7eee7"/>
  <path d="M225 383c20-36 52-54 95-54 45 0 77 18 96 54" fill="#eaf0e9"/>
  <circle cx="306" cy="314" r="24" fill="#c7a98d" opacity=".82"/>
  <path d="M276 344h72c33 0 61 27 61 61v18H215v-18c0-34 27-61 61-61z" fill="#8da4b0" opacity=".52"/>
  <circle cx="502" cy="312" r="22" fill="#c4a58a" opacity=".76"/>
  <path d="M470 342h65c30 0 55 24 55 55v47H415v-47c0-30 24-55 55-55z" fill="#5f8068" opacity=".58"/>
  <path d="M409 420c36 23 77 23 121 0" fill="none" stroke="#c7a98d" stroke-width="15" stroke-linecap="round" opacity=".7"/>
  <rect x="780" y="445" width="138" height="84" rx="18" fill="#f7f3e9" filter="url(#softShadow)"/>
  <path d="M816 445v-32c0-20 16-36 36-36s36 16 36 36v32" fill="none" stroke="#5f8068" stroke-width="12" stroke-linecap="round" opacity=".55"/>
  <circle cx="992" cy="502" r="52" fill="#dbe8da" opacity=".75"/>
  <path d="M994 509c-26-43-15-88 32-132 32 57 22 103-32 132z" fill="#719579" opacity=".48"/>
  <path d="M992 512c-33-29-69-37-109-24 34 41 72 49 109 24z" fill="#a8c0a7" opacity=".55"/>
</svg>
