<svg xmlns="http://www.w3.org/2000/svg" viewBox="0 0 1200 675" role="img">
  <defs>
    <linearGradient id="bg" x1="0" y1="0" x2="1" y2="1">
      <stop offset="0" stop-color="#fffdf8"/>
      <stop offset=".65" stop-color="#f4f1e8"/>
      <stop offset="1" stop-color="#e8eee4"/>
    </linearGradient>
    <filter id="sh" x="-20%" y="-20%" width="140%" height="140%">
      <feDropShadow dx="0" dy="16" stdDeviation="18" flood-color="#596456" flood-opacity=".1"/>
    </filter>
  </defs>
  <rect width="1200" height="675" fill="url(#bg)"/>
  <circle cx="900" cy="115" r="245" fill="#fff7df" opacity=".55"/>
  <path d="M849 44c-37 78-46 167-25 267 18 85 2 158-48 219" fill="none" stroke="#d7e2d4" stroke-width="9" stroke-linecap="round" opacity=".55"/>
  <ellipse cx="826" cy="168" rx="48" ry="17" fill="#789a7c" opacity=".25" transform="rotate(-28 826 168)"/>
  <ellipse cx="793" cy="308" rx="60" ry="20" fill="#789a7c" opacity=".21" transform="rotate(29 793 308)"/>
  <path d="M113 462h690c44 0 80 36 80 80v22H113z" fill="#d4c0a5" opacity=".46"/>
  <rect x="135" y="331" width="526" height="158" rx="31" fill="#faf8f1" filter="url(#sh)"/>
  <rect x="164" y="358" width="290" height="88" rx="22" fill="#e9eee7"/>
  <path d="M179 347c46-57 118-72 214-46 36 10 69 26 99 46" fill="#eef3ec"/>
  <circle cx="327" cy="298" r="25" fill="#c6a98d" opacity=".78"/>
  <path d="M284 330h83c35 0 64 29 64 64v34H220v-34c0-35 29-64 64-64z" fill="#8da4b0" opacity=".42"/>
  <rect x="707" y="330" width="128" height="154" rx="24" fill="#f9f4ea" filter="url(#sh)"/>
  <path d="M744 330v-36c0-23 19-42 42-42s42 19 42 42v36" fill="none" stroke="#436450" stroke-width="13" stroke-linecap="round" opacity=".62"/>
  <rect x="741" y="379" width="61" height="17" rx="8" fill="#dbe6db"/>
  <rect x="742" y="413" width="77" height="17" rx="8" fill="#e9eef1"/>
  <path d="M977 500c-40-78-23-156 51-233 54 96 37 174-51 233z" fill="#6f9379" opacity=".45"/>
  <path d="M972 503c-64-50-130-60-199-29 61 65 128 74 199 29z" fill="#a9bfa8" opacity=".54"/>
  <rect x="948" y="504" width="74" height="48" rx="11" fill="#d7c5aa" opacity=".62"/>
</svg>
